<?xml version="1.0" encoding="utf-8"?>
<!-- Generator: Adobe Illustrator 26.3.0, SVG Export Plug-In . SVG Version: 6.00 Build 0)  -->
<svg version="1.1" id="Layer_1" xmlns="http://www.w3.org/2000/svg" xmlns:xlink="http://www.w3.org/1999/xlink" x="0px" y="0px"
	 viewBox="0 0 510.5 572.5" style="enable-background:new 0 0 510.5 572.5;" xml:space="preserve">
<style type="text/css">
	.st0{fill:#2563eb;}
	.st1{fill:#FFFFFF;}
</style>
<g>
	<path class="st0" d="M511.3,387.96V186.4c0-29.06-15.5-55.91-40.67-70.44L296.07,15.17c-25.17-14.53-56.17-14.53-81.33,0
		L40.17,115.96C15.01,130.49-0.49,157.34-0.49,186.4v201.57c0,29.06,15.5,55.91,40.67,70.44l174.56,100.78
		c25.17,14.53,56.17,14.53,81.33,0L470.64,458.4C495.8,443.87,511.3,417.02,511.3,387.96z"/>
</g>
<g>
	<path class="st1" d="M127.87,223.82h26.12v87.16c0,8.06-1.8,15.06-5.4,21c-3.6,5.94-8.6,10.52-14.98,13.73
		c-6.39,3.21-13.82,4.82-22.28,4.82c-7.53,0-14.35-1.33-20.48-4c-6.12-2.67-10.98-6.73-14.56-12.21
		c-3.58-5.47-5.35-12.36-5.31-20.66h26.31c0.08,3.3,0.76,6.11,2.04,8.45c1.28,2.34,3.05,4.13,5.31,5.37
		c2.26,1.24,4.93,1.86,8.03,1.86c3.25,0,6.01-0.7,8.27-2.11c2.26-1.4,3.98-3.47,5.16-6.2c1.18-2.73,1.77-6.08,1.77-10.07V223.82z"/>
	<path class="st1" d="M198.37,223.82l30.21,94.98h1.16l30.27-94.98h29.3l-43.09,125.01h-34.06l-43.15-125.01H198.37z"/>
	<path class="st1" d="M304.33,223.82h32.59l34.43,83.99h1.46l34.43-83.99h32.59v125.01H414.2v-81.36h-1.04l-32.35,80.75h-17.46
		L331,267.16h-1.04v81.67h-25.64V223.82z"/>
</g>
</svg>
