<?xml version="1.0" encoding="utf-8"?>
<!-- Generator: Adobe Illustrator 26.3.0, SVG Export Plug-In . SVG Version: 6.00 Build 0)  -->
<svg version="1.1" id="Layer_1" xmlns="http://www.w3.org/2000/svg" xmlns:xlink="http://www.w3.org/1999/xlink" x="0px" y="0px"
	 viewBox="0 0 1914.5 604.5" style="enable-background:new 0 0 1914.5 604.5;" xml:space="preserve">
<style type="text/css">
	.st0{fill:#2563eb;}
	.st1{fill:#FFFFFF;}
	.st2{fill:#1A1A1A;}
</style>
<g>
	<path class="st0" d="M529,403.07V201.5c0-29.06-15.5-55.91-40.67-70.44L313.77,30.28c-25.17-14.53-56.17-14.53-81.33,0
		L57.87,131.06C32.71,145.59,17.2,172.44,17.2,201.5v201.57c0,29.06,15.5,55.91,40.67,70.44l174.56,100.78
		c25.17,14.53,56.17,14.53,81.33,0l174.56-100.78C513.5,458.98,529,432.13,529,403.07z"/>
</g>
<g>
	<path class="st1" d="M211.14,212.04h37.7v125.79c0,11.63-2.6,21.73-7.8,30.3c-5.2,8.58-12.41,15.18-21.63,19.82
		s-19.94,6.96-32.15,6.96c-10.87,0-20.72-1.92-29.55-5.77c-8.84-3.85-15.84-9.72-21.01-17.62s-7.72-17.84-7.66-29.82H167
		c0.12,4.76,1.1,8.82,2.95,12.2c1.85,3.38,4.4,5.96,7.66,7.75c3.26,1.79,7.12,2.69,11.58,2.69c4.7,0,8.68-1.01,11.94-3.04
		c3.26-2.03,5.74-5.01,7.44-8.94s2.55-8.78,2.55-14.54V212.04H211.14z"/>
	<path class="st1" d="M378.15,263.92c-0.7-7.1-3.73-12.63-9.07-16.56s-12.6-5.9-21.76-5.9c-6.23,0-11.48,0.87-15.77,2.6
		c-4.29,1.73-7.56,4.13-9.82,7.18c-2.26,3.05-3.39,6.52-3.39,10.39c-0.12,3.23,0.57,6.05,2.07,8.46s3.57,4.48,6.21,6.21
		c2.64,1.73,5.7,3.23,9.16,4.49c3.46,1.26,7.16,2.33,11.1,3.22l16.21,3.88c7.87,1.76,15.09,4.11,21.67,7.05
		c6.58,2.94,12.27,6.55,17.09,10.83c4.81,4.29,8.56,9.34,11.23,15.15s4.04,12.48,4.1,20c-0.06,11.04-2.86,20.6-8.41,28.67
		c-5.55,8.08-13.54,14.33-23.96,18.76c-10.42,4.43-22.98,6.65-37.66,6.65c-14.56,0-27.23-2.23-38.01-6.7
		c-10.78-4.46-19.17-11.08-25.19-19.86s-9.18-19.66-9.47-32.64h36.91c0.41,6.05,2.16,11.08,5.24,15.11
		c3.08,4.02,7.22,7.05,12.42,9.07c5.2,2.03,11.08,3.04,17.66,3.04c6.46,0,12.08-0.94,16.87-2.82s8.5-4.49,11.14-7.84
		s3.96-7.19,3.96-11.54c0-4.05-1.19-7.46-3.57-10.22s-5.84-5.11-10.39-7.05c-4.55-1.94-10.12-3.7-16.69-5.29l-19.64-4.93
		c-15.21-3.7-27.22-9.48-36.03-17.35s-13.18-18.47-13.13-31.8c-0.06-10.92,2.86-20.47,8.77-28.63c5.9-8.16,14.02-14.53,24.36-19.12
		c10.34-4.58,22.08-6.87,35.24-6.87c13.39,0,25.09,2.29,35.1,6.87s17.81,10.95,23.39,19.12c5.58,8.16,8.46,17.62,8.63,28.36h-36.57
		V263.92z"/>
</g>
<g>
	<path class="st2" d="M658.88,229.6l35.14,110.45h1.35l35.21-110.45h34.07l-50.12,145.38h-39.61L624.74,229.6H658.88z"/>
	<path class="st2" d="M782.12,374.97V229.6h97.96v25.34h-67.22v34.64h62.18v25.34h-62.18v34.71h67.51v25.34H782.12z"/>
	<path class="st2" d="M1032.84,280.49h-31.09c-0.57-4.02-1.73-7.61-3.48-10.75c-1.75-3.15-4-5.83-6.74-8.06
		c-2.75-2.22-5.9-3.93-9.48-5.11c-3.57-1.18-7.44-1.77-11.61-1.77c-7.52,0-14.08,1.86-19.66,5.57c-5.58,3.72-9.92,9.11-12.99,16.19
		c-3.08,7.08-4.61,15.65-4.61,25.73c0,10.36,1.55,19.07,4.65,26.12c3.1,7.05,7.44,12.38,13.03,15.97c5.58,3.6,12.04,5.39,19.38,5.39
		c4.12,0,7.94-0.54,11.46-1.63c3.53-1.09,6.66-2.69,9.41-4.79c2.74-2.11,5.03-4.67,6.85-7.7c1.82-3.03,3.09-6.48,3.8-10.36
		l31.09,0.14c-0.81,6.67-2.8,13.1-6,19.27s-7.48,11.69-12.85,16.54s-11.76,8.68-19.17,11.5s-15.77,4.22-25.09,4.22
		c-12.97,0-24.55-2.93-34.75-8.8s-18.24-14.36-24.13-25.48c-5.89-11.12-8.84-24.58-8.84-40.39c0-15.85,2.98-29.34,8.94-40.46
		s14.05-19.6,24.28-25.45c10.22-5.84,21.72-8.77,34.5-8.77c8.42,0,16.24,1.18,23.46,3.55c7.22,2.37,13.62,5.81,19.2,10.33
		s10.14,10.04,13.67,16.58C1029.58,264.59,1031.84,272.07,1032.84,280.49z"/>
	<path class="st2" d="M1049.37,254.94V229.6h119.4v25.34h-44.51v120.04h-30.38V254.94H1049.37z"/>
	<path class="st2" d="M1315.64,302.29c0,15.85-2.99,29.34-8.98,40.46s-14.13,19.6-24.42,25.45s-21.85,8.77-34.68,8.77
		c-12.92,0-24.51-2.93-34.78-8.8s-18.38-14.36-24.35-25.48c-5.96-11.12-8.94-24.58-8.94-40.39c0-15.85,2.98-29.34,8.94-40.46
		s14.08-19.6,24.35-25.45c10.27-5.84,21.86-8.77,34.78-8.77c12.82,0,24.38,2.92,34.68,8.77c10.29,5.85,18.43,14.33,24.42,25.45
		C1312.65,272.94,1315.64,286.43,1315.64,302.29z M1284.48,302.29c0-10.27-1.53-18.93-4.58-25.98c-3.05-7.05-7.35-12.4-12.88-16.04
		c-5.54-3.64-12.02-5.47-19.45-5.47s-13.91,1.82-19.45,5.47c-5.54,3.64-9.83,8.99-12.88,16.04c-3.05,7.05-4.58,15.71-4.58,25.98
		c0,10.27,1.53,18.93,4.58,25.98c3.05,7.05,7.35,12.4,12.88,16.04c5.54,3.64,12.02,5.47,19.45,5.47s13.91-1.82,19.45-5.47
		c5.54-3.64,9.83-8.99,12.88-16.04C1282.96,321.22,1284.48,312.56,1284.48,302.29z"/>
	<path class="st2" d="M1338.36,374.97V229.6h57.36c10.98,0,20.36,1.95,28.15,5.86c7.78,3.9,13.72,9.42,17.82,16.54
		c4.09,7.12,6.14,15.49,6.14,25.09c0,9.65-2.08,17.95-6.25,24.88s-10.19,12.25-18.07,15.94s-17.4,5.54-28.57,5.54h-38.4v-24.7h33.43
		c5.87,0,10.74-0.8,14.62-2.41c3.88-1.61,6.78-4.02,8.7-7.24c1.92-3.22,2.88-7.22,2.88-12c0-4.83-0.96-8.9-2.88-12.21
		s-4.83-5.83-8.73-7.56c-3.9-1.73-8.81-2.59-14.73-2.59h-20.73v120.25h-30.74V374.97z M1416.87,308.82l36.13,66.16h-33.93
		l-35.35-66.16H1416.87z"/>
	<path class="st2" d="M1469.54,229.6h37.91l40.04,97.68h1.7l40.04-97.68h37.91v145.38h-29.81v-94.62h-1.21l-37.62,93.91h-20.3
		L1500.56,280h-1.21v94.98h-29.81V229.6z"/>
	<path class="st2" d="M1677.46,374.97h-32.94l50.19-145.38h39.61l50.12,145.38h-32.94l-36.42-112.16h-1.14L1677.46,374.97z
		 M1675.4,317.83h77.8v23.99h-77.8V317.83z"/>
	<path class="st2" d="M1801.89,374.97V229.6h57.36c11.03,0,20.42,2.09,28.18,6.28s13.69,9.99,17.78,17.39
		c4.09,7.41,6.14,15.94,6.14,25.59c0,9.65-2.08,18.17-6.25,25.56c-4.17,7.38-10.19,13.13-18.07,17.25s-17.4,6.18-28.57,6.18h-36.56
		v-24.63h31.59c5.92,0,10.8-1.03,14.66-3.09s6.74-4.92,8.66-8.59c1.92-3.67,2.88-7.89,2.88-12.67c0-4.83-0.96-9.05-2.88-12.67
		c-1.92-3.62-4.82-6.44-8.7-8.45c-3.88-2.01-8.8-3.02-14.76-3.02h-20.73v120.25L1801.89,374.97L1801.89,374.97z"/>
</g>
</svg>
