<?xml version="1.0" encoding="iso-8859-1"?>
<!-- Generator: Adobe Illustrator 24.1.1, SVG Export Plug-In . SVG Version: 6.00 Build 0)  -->
<svg version="1.0" id="Layer_1" xmlns="http://www.w3.org/2000/svg" xmlns:xlink="http://www.w3.org/1999/xlink" x="0px" y="0px"
	 viewBox="0 0 1280 400" enable-background="new 0 0 1280 400" xml:space="preserve">
<g>
	<path fill="#E6E6E6" d="M292.756,95.528c3.92,0,7.764,1.349,10.825,3.797l62.054,49.643c4.133,3.307,6.504,8.239,6.504,13.532
		s-2.371,10.225-6.504,13.532l-62.054,49.643c-3.061,2.449-6.906,3.797-10.825,3.797s-7.764-1.349-10.825-3.797l-62.054-49.643
		c-4.133-3.307-6.504-8.239-6.504-13.532s2.37-10.225,6.504-13.532l62.054-49.643C284.992,96.877,288.836,95.528,292.756,95.528
		 M292.756,94.528c-4.052,0-8.103,1.339-11.45,4.016l-62.054,49.643c-9.172,7.338-9.172,21.288,0,28.625l62.054,49.643
		c3.347,2.678,7.399,4.016,11.45,4.016s8.103-1.339,11.45-4.016l62.054-49.643c9.172-7.338,9.172-21.288,0-28.625l-62.054-49.643
		C300.859,95.867,296.808,94.528,292.756,94.528L292.756,94.528z"/>
</g>
<g>
	<path fill="#E6E6E6" d="M381.688,170.695c3.92,0,7.764,1.349,10.825,3.797l62.054,49.643c4.133,3.307,6.504,8.239,6.504,13.532
		s-2.371,10.225-6.504,13.532l-62.054,49.643c-3.061,2.449-6.905,3.797-10.825,3.797s-7.764-1.349-10.825-3.797l-62.054-49.643
		c-4.133-3.307-6.504-8.239-6.504-13.532s2.371-10.225,6.504-13.532l62.054-49.643C373.923,172.043,377.768,170.695,381.688,170.695
		 M381.688,169.695c-4.052,0-8.103,1.339-11.45,4.016l-62.054,49.643c-9.172,7.338-9.172,21.288,0,28.625l62.054,49.643
		c3.347,2.678,7.399,4.016,11.45,4.016s8.103-1.339,11.45-4.016l62.054-49.643c9.172-7.338,9.172-21.288,0-28.625l-62.054-49.643
		C389.791,171.034,385.739,169.695,381.688,169.695L381.688,169.695z"/>
</g>
<g>
	<path fill="#E6E6E6" d="M788.584,105.019c2.525,0,5.002,0.869,6.974,2.446l41.181,32.945c2.663,2.13,4.19,5.308,4.19,8.718
		s-1.527,6.587-4.19,8.718l-41.181,32.945c-1.972,1.578-4.449,2.446-6.974,2.446c-2.525,0-5.002-0.869-6.974-2.446l-41.181-32.945
		c-2.663-2.13-4.19-5.308-4.19-8.718s1.527-6.587,4.19-8.718l41.181-32.945C783.582,105.888,786.059,105.019,788.584,105.019
		 M788.584,104.019c-2.689,0-5.377,0.888-7.599,2.665l-41.181,32.945c-6.087,4.87-6.087,14.127,0,18.997l41.181,32.945
		c2.221,1.777,4.91,2.665,7.599,2.665c2.689,0,5.378-0.889,7.599-2.665l41.181-32.945c6.087-4.87,6.087-14.127,0-18.997
		l-41.181-32.945C793.961,104.908,791.273,104.019,788.584,104.019L788.584,104.019z"/>
</g>
<g>
	<path fill="#E6E6E6" d="M847.602,154.903c2.525,0,5.002,0.869,6.974,2.446l41.181,32.945c2.663,2.13,4.19,5.308,4.19,8.718
		s-1.527,6.587-4.19,8.718l-41.181,32.945c-1.972,1.578-4.449,2.446-6.974,2.446s-5.002-0.869-6.974-2.446l-41.181-32.945
		c-2.663-2.13-4.19-5.308-4.19-8.718s1.527-6.587,4.19-8.718l41.181-32.945C842.6,155.772,845.077,154.903,847.602,154.903
		 M847.602,153.903c-2.689,0-5.378,0.888-7.599,2.665l-41.181,32.945c-6.087,4.87-6.087,14.127,0,18.997l41.181,32.945
		c2.221,1.777,4.91,2.665,7.599,2.665s5.378-0.889,7.599-2.665l41.181-32.945c6.087-4.87,6.087-14.127,0-18.997l-41.181-32.945
		C852.98,154.791,850.291,153.903,847.602,153.903L847.602,153.903z"/>
</g>
<g>
	<path fill="#E6E6E6" d="M54.509,1.833c2.525,0,5.002,0.869,6.974,2.446l41.181,32.945c2.663,2.13,4.19,5.308,4.19,8.718
		s-1.527,6.587-4.19,8.718L61.483,87.604c-1.972,1.578-4.449,2.446-6.974,2.446c-2.525,0-5.002-0.869-6.974-2.446L6.354,54.659
		c-2.663-2.13-4.19-5.308-4.19-8.718s1.527-6.587,4.19-8.718L47.535,4.279C49.507,2.702,51.984,1.833,54.509,1.833 M54.509,0.833
		c-2.689,0-5.377,0.888-7.599,2.665L5.729,36.443c-6.087,4.869-6.087,14.127,0,18.997L46.91,88.385
		c2.221,1.777,4.91,2.665,7.599,2.665s5.377-0.888,7.599-2.665l41.181-32.945c6.087-4.869,6.087-14.127,0-18.997L62.108,3.498
		C59.887,1.721,57.198,0.833,54.509,0.833L54.509,0.833z"/>
</g>
<g>
	<path fill="#E6E6E6" d="M57.157,307.616c2.525,0,5.002,0.869,6.974,2.446l41.181,32.945c2.663,2.13,4.19,5.308,4.19,8.718
		c0,3.41-1.527,6.587-4.19,8.717l-41.181,32.945c-1.972,1.578-4.449,2.446-6.974,2.446c-2.525,0-5.002-0.869-6.974-2.446
		L9.002,360.442c-2.663-2.13-4.19-5.308-4.19-8.717c0-3.41,1.527-6.587,4.19-8.718l41.181-32.945
		C52.155,308.485,54.632,307.616,57.157,307.616 M57.157,306.616c-2.689,0-5.377,0.888-7.599,2.665L8.378,342.226
		c-6.087,4.87-6.087,14.127,0,18.997l41.181,32.945c2.221,1.777,4.91,2.665,7.599,2.665s5.377-0.888,7.599-2.665l41.181-32.945
		c6.087-4.869,6.087-14.127,0-18.997l-41.181-32.945C62.535,307.505,59.846,306.616,57.157,306.616L57.157,306.616z"/>
</g>
<g>
	<path fill="#E6E6E6" d="M1201.042,302.706c1.697,0,3.361,0.584,4.686,1.644l28.783,23.026c1.789,1.431,2.815,3.566,2.815,5.858
		c0,2.291-1.026,4.426-2.815,5.858l-28.783,23.026c-1.325,1.06-2.989,1.644-4.686,1.644s-3.361-0.584-4.686-1.644l-28.783-23.026
		c-1.789-1.431-2.815-3.566-2.815-5.858c0-2.291,1.026-4.426,2.815-5.858l28.783-23.026
		C1197.681,303.29,1199.345,302.706,1201.042,302.706 M1201.042,301.706c-1.879,0-3.758,0.621-5.311,1.863l-28.783,23.026
		c-4.254,3.403-4.254,9.874,0,13.277l28.783,23.026c1.552,1.242,3.432,1.863,5.311,1.863s3.758-0.621,5.311-1.863l28.783-23.026
		c4.254-3.403,4.254-9.874,0-13.277l-28.783-23.026C1204.8,302.327,1202.921,301.706,1201.042,301.706L1201.042,301.706z"/>
</g>
<g>
	<path fill="#E6E6E6" d="M1242.292,337.571c1.697,0,3.361,0.584,4.686,1.644l28.783,23.026c1.789,1.431,2.815,3.566,2.815,5.858
		s-1.026,4.426-2.815,5.858l-28.783,23.026c-1.325,1.06-2.989,1.644-4.686,1.644c-1.697,0-3.361-0.584-4.686-1.644l-28.782-23.026
		c-1.789-1.431-2.815-3.566-2.815-5.858s1.026-4.426,2.815-5.858l28.782-23.026C1238.93,338.155,1240.594,337.571,1242.292,337.571
		 M1242.291,336.571c-1.879,0-3.758,0.621-5.311,1.863l-28.783,23.026c-4.254,3.403-4.254,9.874,0,13.277l28.783,23.026
		c1.552,1.242,3.432,1.863,5.311,1.863c1.879,0,3.759-0.621,5.311-1.863l28.783-23.026c4.254-3.403,4.254-9.874,0-13.277
		l-28.783-23.026C1246.05,337.192,1244.171,336.571,1242.291,336.571L1242.291,336.571z"/>
</g>
<g>
	<path fill="#E6E6E6" d="M1171.563,20.157c2.006,0,3.973,0.69,5.539,1.943l32.708,26.166c2.115,1.692,3.328,4.215,3.328,6.924
		s-1.213,5.232-3.328,6.924l-32.708,26.166c-1.566,1.253-3.533,1.943-5.539,1.943s-3.973-0.69-5.539-1.943l-32.708-26.166
		c-2.115-1.692-3.328-4.215-3.328-6.924s1.213-5.232,3.328-6.924l32.708-26.166C1167.59,20.847,1169.557,20.157,1171.563,20.157
		 M1171.563,19.363c-2.135,0-4.271,0.706-6.035,2.117l-32.708,26.166c-4.834,3.868-4.834,11.22,0,15.088l32.708,26.166
		c1.764,1.411,3.9,2.117,6.035,2.117s4.271-0.706,6.035-2.117l32.708-26.166c4.834-3.868,4.834-11.22,0-15.088l-32.708-26.166
		C1175.834,20.069,1173.698,19.363,1171.563,19.363L1171.563,19.363z"/>
</g>
<g>
	<path fill="#E6E6E6" d="M1218.437,59.777c2.006,0,3.973,0.69,5.539,1.943l32.708,26.166c2.115,1.692,3.328,4.215,3.328,6.924
		s-1.213,5.232-3.328,6.924l-32.708,26.166c-1.566,1.253-3.533,1.943-5.539,1.943s-3.973-0.69-5.539-1.943l-32.708-26.166
		c-2.115-1.692-3.328-4.215-3.328-6.924s1.213-5.232,3.328-6.924l32.708-26.166C1214.464,60.467,1216.432,59.777,1218.437,59.777
		 M1218.437,58.983c-2.135,0-4.271,0.706-6.035,2.117l-32.708,26.166c-4.834,3.868-4.834,11.22,0,15.088l32.708,26.166
		c1.764,1.411,3.9,2.117,6.035,2.117s4.271-0.706,6.035-2.117l32.708-26.166c4.834-3.868,4.834-11.22,0-15.088L1224.472,61.1
		C1222.708,59.688,1220.573,58.983,1218.437,58.983L1218.437,58.983z"/>
</g>
</svg>
